{
	"asset":{
		"generator":"Khronos glTF Blender I/O v4.2.69",
		"version":"2.0"
	},
	"scene":0,
	"scenes":[
		{
			"name":"Scene",
			"nodes":[
				0,
				1
			]
		}
	],
	"nodes":[
		{
			"mesh":0,
			"name":"obj_hand_b",
			"scale":[
				0.1311570405960083,
				0.1311570405960083,
				0.1311570405960083
			]
		},
		{
			"mesh":1,
			"name":"obj_gun_d_machine_gun"
		}
	],
	"meshes":[
		{
			"name":"Cube.035",
			"primitives":[
				{
					"attributes":{
						"POSITION":0,
						"NORMAL":1,
						"TEXCOORD_0":2
					},
					"indices":3
				}
			]
		},
		{
			"name":"Cube.036",
			"primitives":[
				{
					"attributes":{
						"POSITION":4,
						"NORMAL":5,
						"TEXCOORD_0":6
					},
					"indices":7
				}
			]
		}
	],
	"accessors":[
		{
			"bufferView":0,
			"componentType":5126,
			"count":86,
			"max":[
				0.23581764101982117,
				1.1848641633987427,
				-0.9536406993865967
			],
			"min":[
				-2.2574455738067627,
				0.01968616247177124,
				-5.393442153930664
			],
			"type":"VEC3"
		},
		{
			"bufferView":1,
			"componentType":5126,
			"count":86,
			"type":"VEC3"
		},
		{
			"bufferView":2,
			"componentType":5126,
			"count":86,
			"type":"VEC2"
		},
		{
			"bufferView":3,
			"componentType":5123,
			"count":132,
			"type":"SCALAR"
		},
		{
			"bufferView":4,
			"componentType":5126,
			"count":108,
			"max":[
				0.019999995827674866,
				0.18000000715255737,
				0
			],
			"min":[
				-0.23508380353450775,
				0,
				-0.8734089732170105
			],
			"type":"VEC3"
		},
		{
			"bufferView":5,
			"componentType":5126,
			"count":108,
			"type":"VEC3"
		},
		{
			"bufferView":6,
			"componentType":5126,
			"count":108,
			"type":"VEC2"
		},
		{
			"bufferView":7,
			"componentType":5123,
			"count":264,
			"type":"SCALAR"
		}
	],
	"bufferViews":[
		{
			"buffer":0,
			"byteLength":1032,
			"byteOffset":0,
			"target":34962
		},
		{
			"buffer":0,
			"byteLength":1032,
			"byteOffset":1032,
			"target":34962
		},
		{
			"buffer":0,
			"byteLength":688,
			"byteOffset":2064,
			"target":34962
		},
		{
			"buffer":0,
			"byteLength":264,
			"byteOffset":2752,
			"target":34963
		},
		{
			"buffer":0,
			"byteLength":1296,
			"byteOffset":3016,
			"target":34962
		},
		{
			"buffer":0,
			"byteLength":1296,
			"byteOffset":4312,
			"target":34962
		},
		{
			"buffer":0,
			"byteLength":864,
			"byteOffset":5608,
			"target":34962
		},
		{
			"buffer":0,
			"byteLength":528,
			"byteOffset":6472,
			"target":34963
		}
	],
	"buffers":[
		{
			"byteLength":7000,
			"uri":"obj_gun_d_machine_gun.bin"
		}
	]
}
