{
	"asset":{
		"generator":"Khronos glTF Blender I/O v4.2.69",
		"version":"2.0"
	},
	"scene":0,
	"scenes":[
		{
			"name":"Scene",
			"nodes":[
				0,
				1
			]
		}
	],
	"nodes":[
		{
			"mesh":0,
			"name":"obj_gun_a_pistol"
		},
		{
			"mesh":1,
			"name":"obj_hand",
			"scale":[
				0.056308384984731674,
				0.056308384984731674,
				0.056308384984731674
			],
			"translation":[
				0.040194347500801086,
				0.024309715256094933,
				-0.03402085229754448
			]
		}
	],
	"meshes":[
		{
			"name":"Cube.012",
			"primitives":[
				{
					"attributes":{
						"POSITION":0,
						"NORMAL":1,
						"TEXCOORD_0":2
					},
					"indices":3
				}
			]
		},
		{
			"name":"Cube.029",
			"primitives":[
				{
					"attributes":{
						"POSITION":4,
						"NORMAL":5,
						"TEXCOORD_0":6
					},
					"indices":7
				}
			]
		}
	],
	"accessors":[
		{
			"bufferView":0,
			"componentType":5126,
			"count":420,
			"max":[
				0.019999995827674866,
				0.15187369287014008,
				0.014981103129684925
			],
			"min":[
				-0.019999999552965164,
				0,
				-0.2199999988079071
			],
			"type":"VEC3"
		},
		{
			"bufferView":1,
			"componentType":5126,
			"count":420,
			"type":"VEC3"
		},
		{
			"bufferView":2,
			"componentType":5126,
			"count":420,
			"type":"VEC2"
		},
		{
			"bufferView":3,
			"componentType":5123,
			"count":912,
			"type":"SCALAR"
		},
		{
			"bufferView":4,
			"componentType":5126,
			"count":132,
			"max":[
				-0.16514039039611816,
				1,
				0.7817815542221069
			],
			"min":[
				-1.4405357837677002,
				-0.6093180179595947,
				-0.9941530227661133
			],
			"type":"VEC3"
		},
		{
			"bufferView":5,
			"componentType":5126,
			"count":132,
			"type":"VEC3"
		},
		{
			"bufferView":6,
			"componentType":5126,
			"count":132,
			"type":"VEC2"
		},
		{
			"bufferView":7,
			"componentType":5123,
			"count":276,
			"type":"SCALAR"
		}
	],
	"bufferViews":[
		{
			"buffer":0,
			"byteLength":5040,
			"byteOffset":0,
			"target":34962
		},
		{
			"buffer":0,
			"byteLength":5040,
			"byteOffset":5040,
			"target":34962
		},
		{
			"buffer":0,
			"byteLength":3360,
			"byteOffset":10080,
			"target":34962
		},
		{
			"buffer":0,
			"byteLength":1824,
			"byteOffset":13440,
			"target":34963
		},
		{
			"buffer":0,
			"byteLength":1584,
			"byteOffset":15264,
			"target":34962
		},
		{
			"buffer":0,
			"byteLength":1584,
			"byteOffset":16848,
			"target":34962
		},
		{
			"buffer":0,
			"byteLength":1056,
			"byteOffset":18432,
			"target":34962
		},
		{
			"buffer":0,
			"byteLength":552,
			"byteOffset":19488,
			"target":34963
		}
	],
	"buffers":[
		{
			"byteLength":20040,
			"uri":"obj_gun_a_pistol.bin"
		}
	]
}
