{
	"asset":{
		"generator":"Khronos glTF Blender I/O v4.2.69",
		"version":"2.0"
	},
	"scene":0,
	"scenes":[
		{
			"name":"Scene",
			"nodes":[
				0,
				1,
				2,
				3,
				4,
				5
			]
		}
	],
	"nodes":[
		{
			"mesh":0,
			"name":"obj_gun_e_minigun"
		},
		{
			"mesh":1,
			"name":"obj_gun_e_minigun_barrel_a",
			"translation":[
				0,
				0.09999999403953552,
				-0.2199999988079071
			]
		},
		{
			"mesh":2,
			"name":"obj_hand_c",
			"rotation":[
				-0.035070858895778656,
				-0.00879936944693327,
				0.43855515122413635,
				0.8979767560958862
			],
			"scale":[
				0.1311570405960083,
				0.1311570405960083,
				0.1311570256948471
			],
			"translation":[
				-0.0950150191783905,
				0.25172320008277893,
				-0.1579202115535736
			]
		},
		{
			"mesh":3,
			"name":"obj_gun_e_minigun_barreL_b",
			"translation":[
				0,
				0.10000000149011612,
				-0.2199999988079071
			]
		},
		{
			"mesh":4,
			"name":"obj_gun_e_minigun_barrel_c",
			"rotation":[
				0,
				0,
				-0.7071068286895752,
				0.7071068286895752
			],
			"translation":[
				0,
				0.09999999403953552,
				-0.2199999988079071
			]
		},
		{
			"mesh":5,
			"name":"obj_gun_e_minigun_barreL_d",
			"rotation":[
				0,
				0,
				-0.7071068286895752,
				0.7071068286895752
			],
			"translation":[
				0,
				0.09999999403953552,
				-0.2199999988079071
			]
		}
	],
	"meshes":[
		{
			"name":"Cube.033",
			"primitives":[
				{
					"attributes":{
						"POSITION":0,
						"NORMAL":1,
						"TEXCOORD_0":2
					},
					"indices":3
				}
			]
		},
		{
			"name":"Cube.034",
			"primitives":[
				{
					"attributes":{
						"POSITION":4,
						"NORMAL":5,
						"TEXCOORD_0":6
					},
					"indices":7
				}
			]
		},
		{
			"name":"Cube.037",
			"primitives":[
				{
					"attributes":{
						"POSITION":8,
						"NORMAL":9,
						"TEXCOORD_0":10
					},
					"indices":11
				}
			]
		},
		{
			"name":"Cube.038",
			"primitives":[
				{
					"attributes":{
						"POSITION":12,
						"NORMAL":13,
						"TEXCOORD_0":14
					},
					"indices":7
				}
			]
		},
		{
			"name":"Cube.039",
			"primitives":[
				{
					"attributes":{
						"POSITION":15,
						"NORMAL":16,
						"TEXCOORD_0":17
					},
					"indices":7
				}
			]
		},
		{
			"name":"Cube.040",
			"primitives":[
				{
					"attributes":{
						"POSITION":18,
						"NORMAL":19,
						"TEXCOORD_0":20
					},
					"indices":7
				}
			]
		}
	],
	"accessors":[
		{
			"bufferView":0,
			"componentType":5126,
			"count":132,
			"max":[
				0.10000000149011612,
				0.20000000298023224,
				0
			],
			"min":[
				-0.2401018589735031,
				0,
				-0.2199999988079071
			],
			"type":"VEC3"
		},
		{
			"bufferView":1,
			"componentType":5126,
			"count":132,
			"type":"VEC3"
		},
		{
			"bufferView":2,
			"componentType":5126,
			"count":132,
			"type":"VEC2"
		},
		{
			"bufferView":3,
			"componentType":5123,
			"count":288,
			"type":"SCALAR"
		},
		{
			"bufferView":4,
			"componentType":5126,
			"count":24,
			"max":[
				0.019999999552965164,
				-0.040000006556510925,
				0
			],
			"min":[
				-0.019999999552965164,
				-0.07999999821186066,
				-0.6000000238418579
			],
			"type":"VEC3"
		},
		{
			"bufferView":5,
			"componentType":5126,
			"count":24,
			"type":"VEC3"
		},
		{
			"bufferView":6,
			"componentType":5126,
			"count":24,
			"type":"VEC2"
		},
		{
			"bufferView":7,
			"componentType":5123,
			"count":36,
			"type":"SCALAR"
		},
		{
			"bufferView":8,
			"componentType":5126,
			"count":86,
			"max":[
				-0.8644958138465881,
				-0.3052043914794922,
				4.014481544494629
			],
			"min":[
				-3.354668617248535,
				-1.4703824520111084,
				-0.29981470108032227
			],
			"type":"VEC3"
		},
		{
			"bufferView":9,
			"componentType":5126,
			"count":86,
			"type":"VEC3"
		},
		{
			"bufferView":10,
			"componentType":5126,
			"count":86,
			"type":"VEC2"
		},
		{
			"bufferView":11,
			"componentType":5123,
			"count":132,
			"type":"SCALAR"
		},
		{
			"bufferView":12,
			"componentType":5126,
			"count":24,
			"max":[
				0.019999999552965164,
				0.07999999076128006,
				0
			],
			"min":[
				-0.019999999552965164,
				0.03999999910593033,
				-0.6000000238418579
			],
			"type":"VEC3"
		},
		{
			"bufferView":13,
			"componentType":5126,
			"count":24,
			"type":"VEC3"
		},
		{
			"bufferView":14,
			"componentType":5126,
			"count":24,
			"type":"VEC2"
		},
		{
			"bufferView":15,
			"componentType":5126,
			"count":24,
			"max":[
				0.019999999552965164,
				-0.040000006556510925,
				0
			],
			"min":[
				-0.019999999552965164,
				-0.07999999821186066,
				-0.6000000238418579
			],
			"type":"VEC3"
		},
		{
			"bufferView":16,
			"componentType":5126,
			"count":24,
			"type":"VEC3"
		},
		{
			"bufferView":17,
			"componentType":5126,
			"count":24,
			"type":"VEC2"
		},
		{
			"bufferView":18,
			"componentType":5126,
			"count":24,
			"max":[
				0.019999999552965164,
				0.07999999076128006,
				0
			],
			"min":[
				-0.019999999552965164,
				0.03999999910593033,
				-0.6000000238418579
			],
			"type":"VEC3"
		},
		{
			"bufferView":19,
			"componentType":5126,
			"count":24,
			"type":"VEC3"
		},
		{
			"bufferView":20,
			"componentType":5126,
			"count":24,
			"type":"VEC2"
		}
	],
	"bufferViews":[
		{
			"buffer":0,
			"byteLength":1584,
			"byteOffset":0,
			"target":34962
		},
		{
			"buffer":0,
			"byteLength":1584,
			"byteOffset":1584,
			"target":34962
		},
		{
			"buffer":0,
			"byteLength":1056,
			"byteOffset":3168,
			"target":34962
		},
		{
			"buffer":0,
			"byteLength":576,
			"byteOffset":4224,
			"target":34963
		},
		{
			"buffer":0,
			"byteLength":288,
			"byteOffset":4800,
			"target":34962
		},
		{
			"buffer":0,
			"byteLength":288,
			"byteOffset":5088,
			"target":34962
		},
		{
			"buffer":0,
			"byteLength":192,
			"byteOffset":5376,
			"target":34962
		},
		{
			"buffer":0,
			"byteLength":72,
			"byteOffset":5568,
			"target":34963
		},
		{
			"buffer":0,
			"byteLength":1032,
			"byteOffset":5640,
			"target":34962
		},
		{
			"buffer":0,
			"byteLength":1032,
			"byteOffset":6672,
			"target":34962
		},
		{
			"buffer":0,
			"byteLength":688,
			"byteOffset":7704,
			"target":34962
		},
		{
			"buffer":0,
			"byteLength":264,
			"byteOffset":8392,
			"target":34963
		},
		{
			"buffer":0,
			"byteLength":288,
			"byteOffset":8656,
			"target":34962
		},
		{
			"buffer":0,
			"byteLength":288,
			"byteOffset":8944,
			"target":34962
		},
		{
			"buffer":0,
			"byteLength":192,
			"byteOffset":9232,
			"target":34962
		},
		{
			"buffer":0,
			"byteLength":288,
			"byteOffset":9424,
			"target":34962
		},
		{
			"buffer":0,
			"byteLength":288,
			"byteOffset":9712,
			"target":34962
		},
		{
			"buffer":0,
			"byteLength":192,
			"byteOffset":10000,
			"target":34962
		},
		{
			"buffer":0,
			"byteLength":288,
			"byteOffset":10192,
			"target":34962
		},
		{
			"buffer":0,
			"byteLength":288,
			"byteOffset":10480,
			"target":34962
		},
		{
			"buffer":0,
			"byteLength":192,
			"byteOffset":10768,
			"target":34962
		}
	],
	"buffers":[
		{
			"byteLength":10960,
			"uri":"obj_gun_e_minigun.bin"
		}
	]
}
