{
	"asset":{
		"generator":"Khronos glTF Blender I/O v4.2.69",
		"version":"2.0"
	},
	"scene":0,
	"scenes":[
		{
			"name":"Scene",
			"nodes":[
				0,
				1,
				2,
				3,
				4,
				5
			]
		}
	],
	"nodes":[
		{
			"mesh":0,
			"name":"obj_gun_e_minigun"
		},
		{
			"mesh":1,
			"name":"obj_gun_e_minigun_barrel_a",
			"translation":[
				0,
				0.09999999403953552,
				-0.2199999988079071
			]
		},
		{
			"mesh":2,
			"name":"obj_hand_c",
			"rotation":[
				-0.035070858895778656,
				-0.00879936944693327,
				0.43855515122413635,
				0.8979767560958862
			],
			"scale":[
				0.1311570405960083,
				0.1311570405960083,
				0.1311570256948471
			],
			"translation":[
				-0.0950150191783905,
				0.25172320008277893,
				-0.1579202115535736
			]
		},
		{
			"mesh":3,
			"name":"obj_gun_e_minigun_barreL_b",
			"translation":[
				0,
				0.10000000149011612,
				-0.2199999988079071
			]
		},
		{
			"mesh":4,
			"name":"obj_gun_e_minigun_barrel_c",
			"rotation":[
				0,
				0,
				-0.7071068286895752,
				0.7071068286895752
			],
			"translation":[
				0,
				0.09999999403953552,
				-0.2199999988079071
			]
		},
		{
			"mesh":5,
			"name":"obj_gun_e_minigun_barreL_d",
			"rotation":[
				0,
				0,
				-0.7071068286895752,
				0.7071068286895752
			],
			"translation":[
				0,
				0.09999999403953552,
				-0.2199999988079071
			]
		}
	],
	"meshes":[
		{
			"name":"Cube.033",
			"primitives":[
				{
					"attributes":{
						"POSITION":0,
						"NORMAL":1,
						"TEXCOORD_0":2
					},
					"indices":3
				}
			]
		},
		{
			"name":"Cube.034",
			"primitives":[
				{
					"attributes":{
						"POSITION":4,
						"NORMAL":5,
						"TEXCOORD_0":6
					},
					"indices":7
				}
			]
		},
		{
			"name":"Cube.037",
			"primitives":[
				{
					"attributes":{
						"POSITION":8,
						"NORMAL":9,
						"TEXCOORD_0":10
					},
					"indices":11
				}
			]
		},
		{
			"name":"Cube.038",
			"primitives":[
				{
					"attributes":{
						"POSITION":12,
						"NORMAL":13,
						"TEXCOORD_0":14
					},
					"indices":15
				}
			]
		},
		{
			"name":"Cube.039",
			"primitives":[
				{
					"attributes":{
						"POSITION":16,
						"NORMAL":17,
						"TEXCOORD_0":18
					},
					"indices":7
				}
			]
		},
		{
			"name":"Cube.040",
			"primitives":[
				{
					"attributes":{
						"POSITION":19,
						"NORMAL":20,
						"TEXCOORD_0":21
					},
					"indices":7
				}
			]
		}
	],
	"accessors":[
		{
			"bufferView":0,
			"componentType":5126,
			"count":152,
			"max":[
				0.10000000149011612,
				0.20000000298023224,
				0
			],
			"min":[
				-0.2401018589735031,
				0,
				-0.2199999988079071
			],
			"type":"VEC3"
		},
		{
			"bufferView":1,
			"componentType":5126,
			"count":152,
			"type":"VEC3"
		},
		{
			"bufferView":2,
			"componentType":5126,
			"count":152,
			"type":"VEC2"
		},
		{
			"bufferView":3,
			"componentType":5123,
			"count":288,
			"type":"SCALAR"
		},
		{
			"bufferView":4,
			"componentType":5126,
			"count":50,
			"max":[
				0.029999999329447746,
				-0.030000006780028343,
				0
			],
			"min":[
				-0.029999999329447746,
				-0.08999999612569809,
				-0.6000000238418579
			],
			"type":"VEC3"
		},
		{
			"bufferView":5,
			"componentType":5126,
			"count":50,
			"type":"VEC3"
		},
		{
			"bufferView":6,
			"componentType":5126,
			"count":50,
			"type":"VEC2"
		},
		{
			"bufferView":7,
			"componentType":5123,
			"count":96,
			"type":"SCALAR"
		},
		{
			"bufferView":8,
			"componentType":5126,
			"count":86,
			"max":[
				-0.8644958138465881,
				-0.3052043914794922,
				4.014481544494629
			],
			"min":[
				-3.354668617248535,
				-1.4703824520111084,
				-0.29981470108032227
			],
			"type":"VEC3"
		},
		{
			"bufferView":9,
			"componentType":5126,
			"count":86,
			"type":"VEC3"
		},
		{
			"bufferView":10,
			"componentType":5126,
			"count":86,
			"type":"VEC2"
		},
		{
			"bufferView":11,
			"componentType":5123,
			"count":132,
			"type":"SCALAR"
		},
		{
			"bufferView":12,
			"componentType":5126,
			"count":50,
			"max":[
				0.029999999329447746,
				0.08999998867511749,
				0
			],
			"min":[
				-0.029999999329447746,
				0.029999999329447746,
				-0.6000000238418579
			],
			"type":"VEC3"
		},
		{
			"bufferView":13,
			"componentType":5126,
			"count":50,
			"type":"VEC3"
		},
		{
			"bufferView":14,
			"componentType":5126,
			"count":50,
			"type":"VEC2"
		},
		{
			"bufferView":15,
			"componentType":5123,
			"count":96,
			"type":"SCALAR"
		},
		{
			"bufferView":16,
			"componentType":5126,
			"count":50,
			"max":[
				0.029999999329447746,
				-0.030000006780028343,
				0
			],
			"min":[
				-0.029999999329447746,
				-0.08999999612569809,
				-0.6000000238418579
			],
			"type":"VEC3"
		},
		{
			"bufferView":17,
			"componentType":5126,
			"count":50,
			"type":"VEC3"
		},
		{
			"bufferView":18,
			"componentType":5126,
			"count":50,
			"type":"VEC2"
		},
		{
			"bufferView":19,
			"componentType":5126,
			"count":50,
			"max":[
				0.029999999329447746,
				0.08999998867511749,
				0
			],
			"min":[
				-0.029999999329447746,
				0.029999999329447746,
				-0.6000000238418579
			],
			"type":"VEC3"
		},
		{
			"bufferView":20,
			"componentType":5126,
			"count":50,
			"type":"VEC3"
		},
		{
			"bufferView":21,
			"componentType":5126,
			"count":50,
			"type":"VEC2"
		}
	],
	"bufferViews":[
		{
			"buffer":0,
			"byteLength":1824,
			"byteOffset":0,
			"target":34962
		},
		{
			"buffer":0,
			"byteLength":1824,
			"byteOffset":1824,
			"target":34962
		},
		{
			"buffer":0,
			"byteLength":1216,
			"byteOffset":3648,
			"target":34962
		},
		{
			"buffer":0,
			"byteLength":576,
			"byteOffset":4864,
			"target":34963
		},
		{
			"buffer":0,
			"byteLength":600,
			"byteOffset":5440,
			"target":34962
		},
		{
			"buffer":0,
			"byteLength":600,
			"byteOffset":6040,
			"target":34962
		},
		{
			"buffer":0,
			"byteLength":400,
			"byteOffset":6640,
			"target":34962
		},
		{
			"buffer":0,
			"byteLength":192,
			"byteOffset":7040,
			"target":34963
		},
		{
			"buffer":0,
			"byteLength":1032,
			"byteOffset":7232,
			"target":34962
		},
		{
			"buffer":0,
			"byteLength":1032,
			"byteOffset":8264,
			"target":34962
		},
		{
			"buffer":0,
			"byteLength":688,
			"byteOffset":9296,
			"target":34962
		},
		{
			"buffer":0,
			"byteLength":264,
			"byteOffset":9984,
			"target":34963
		},
		{
			"buffer":0,
			"byteLength":600,
			"byteOffset":10248,
			"target":34962
		},
		{
			"buffer":0,
			"byteLength":600,
			"byteOffset":10848,
			"target":34962
		},
		{
			"buffer":0,
			"byteLength":400,
			"byteOffset":11448,
			"target":34962
		},
		{
			"buffer":0,
			"byteLength":192,
			"byteOffset":11848,
			"target":34963
		},
		{
			"buffer":0,
			"byteLength":600,
			"byteOffset":12040,
			"target":34962
		},
		{
			"buffer":0,
			"byteLength":600,
			"byteOffset":12640,
			"target":34962
		},
		{
			"buffer":0,
			"byteLength":400,
			"byteOffset":13240,
			"target":34962
		},
		{
			"buffer":0,
			"byteLength":600,
			"byteOffset":13640,
			"target":34962
		},
		{
			"buffer":0,
			"byteLength":600,
			"byteOffset":14240,
			"target":34962
		},
		{
			"buffer":0,
			"byteLength":400,
			"byteOffset":14840,
			"target":34962
		}
	],
	"buffers":[
		{
			"byteLength":15240,
			"uri":"obj_gun_e_minigun.bin"
		}
	]
}
