{
	"asset":{
		"generator":"Khronos glTF Blender I/O v4.2.69",
		"version":"2.0"
	},
	"scene":0,
	"scenes":[
		{
			"name":"Scene",
			"nodes":[
				0,
				1
			]
		}
	],
	"nodes":[
		{
			"mesh":0,
			"name":"obj_gun_c_shotgun"
		},
		{
			"mesh":1,
			"name":"obj_hand_d",
			"scale":[
				0.1311570405960083,
				0.1311570405960083,
				0.1311570405960083
			],
			"translation":[
				0,
				-0.04990291967988014,
				0
			]
		}
	],
	"meshes":[
		{
			"name":"Cube.041",
			"primitives":[
				{
					"attributes":{
						"POSITION":0,
						"NORMAL":1,
						"TEXCOORD_0":2
					},
					"indices":3
				}
			]
		},
		{
			"name":"Cube.042",
			"primitives":[
				{
					"attributes":{
						"POSITION":4,
						"NORMAL":5,
						"TEXCOORD_0":6
					},
					"indices":7
				}
			]
		}
	],
	"accessors":[
		{
			"bufferView":0,
			"componentType":5126,
			"count":440,
			"max":[
				0.029999995604157448,
				0.19500000774860382,
				0
			],
			"min":[
				-0.029999999329447746,
				0,
				-1.100000023841858
			],
			"type":"VEC3"
		},
		{
			"bufferView":1,
			"componentType":5126,
			"count":440,
			"type":"VEC3"
		},
		{
			"bufferView":2,
			"componentType":5126,
			"count":440,
			"type":"VEC2"
		},
		{
			"bufferView":3,
			"componentType":5123,
			"count":1044,
			"type":"SCALAR"
		},
		{
			"bufferView":4,
			"componentType":5126,
			"count":86,
			"max":[
				0.23581764101982117,
				1.1848641633987427,
				-0.9536406993865967
			],
			"min":[
				-2.2574455738067627,
				0.01968616247177124,
				-5.393442153930664
			],
			"type":"VEC3"
		},
		{
			"bufferView":5,
			"componentType":5126,
			"count":86,
			"type":"VEC3"
		},
		{
			"bufferView":6,
			"componentType":5126,
			"count":86,
			"type":"VEC2"
		},
		{
			"bufferView":7,
			"componentType":5123,
			"count":132,
			"type":"SCALAR"
		}
	],
	"bufferViews":[
		{
			"buffer":0,
			"byteLength":5280,
			"byteOffset":0,
			"target":34962
		},
		{
			"buffer":0,
			"byteLength":5280,
			"byteOffset":5280,
			"target":34962
		},
		{
			"buffer":0,
			"byteLength":3520,
			"byteOffset":10560,
			"target":34962
		},
		{
			"buffer":0,
			"byteLength":2088,
			"byteOffset":14080,
			"target":34963
		},
		{
			"buffer":0,
			"byteLength":1032,
			"byteOffset":16168,
			"target":34962
		},
		{
			"buffer":0,
			"byteLength":1032,
			"byteOffset":17200,
			"target":34962
		},
		{
			"buffer":0,
			"byteLength":688,
			"byteOffset":18232,
			"target":34962
		},
		{
			"buffer":0,
			"byteLength":264,
			"byteOffset":18920,
			"target":34963
		}
	],
	"buffers":[
		{
			"byteLength":19184,
			"uri":"obj_gun_c_shotgun.bin"
		}
	]
}
