{
	"asset":{
		"generator":"Khronos glTF Blender I/O v4.2.69",
		"version":"2.0"
	},
	"scene":0,
	"scenes":[
		{
			"name":"Scene",
			"nodes":[
				0,
				1,
				2,
				3,
				4,
				5,
				6,
				7,
				8
			]
		}
	],
	"nodes":[
		{
			"mesh":0,
			"name":"obj_spider_body",
			"translation":[
				0,
				0.019999999552965164,
				0
			]
		},
		{
			"mesh":1,
			"name":"obj_spider_leg_a",
			"rotation":[
				0,
				0.7071067094802856,
				0,
				0.7071068286895752
			],
			"translation":[
				-0.04500000178813934,
				0.019999999552965164,
				0.05000000447034836
			]
		},
		{
			"mesh":2,
			"name":"obj_spider_leg_b",
			"rotation":[
				0,
				0.7071067094802856,
				0,
				0.7071068286895752
			],
			"translation":[
				-0.010994933545589447,
				0.019999999552965164,
				0.05000000447034836
			]
		},
		{
			"mesh":3,
			"name":"obj_spider_leg_c",
			"rotation":[
				0,
				0.7071067094802856,
				0,
				0.7071068286895752
			],
			"translation":[
				0.021793395280838013,
				0.019999999552965164,
				0.05000000447034836
			]
		},
		{
			"mesh":4,
			"name":"obj_spider_leg_d",
			"rotation":[
				0,
				0.7071067094802856,
				0,
				0.7071068286895752
			],
			"translation":[
				0.054122231900691986,
				0.019999999552965164,
				0.05000000447034836
			]
		},
		{
			"mesh":5,
			"name":"obj_spider_leg_e",
			"rotation":[
				0.7071068286895752,
				0,
				-0.7071067094802856,
				0
			],
			"scale":[
				-1,
				-1,
				-1
			],
			"translation":[
				-0.04500000178813934,
				0.019999999552965164,
				-0.04999999701976776
			]
		},
		{
			"mesh":6,
			"name":"obj_spider_leg_f",
			"rotation":[
				0.7071068286895752,
				0,
				-0.7071067094802856,
				0
			],
			"scale":[
				-1,
				-1,
				-1
			],
			"translation":[
				-0.010994933545589447,
				0.019999999552965164,
				-0.04999999701976776
			]
		},
		{
			"mesh":7,
			"name":"obj_spider_leg_g",
			"rotation":[
				0.7071068286895752,
				0,
				-0.7071067094802856,
				0
			],
			"scale":[
				-1,
				-1,
				-1
			],
			"translation":[
				0.021793395280838013,
				0.019999999552965164,
				-0.04999999701976776
			]
		},
		{
			"mesh":8,
			"name":"obj_spider_leg_h",
			"rotation":[
				0.7071068286895752,
				0,
				-0.7071067094802856,
				0
			],
			"scale":[
				-1,
				-1,
				-1
			],
			"translation":[
				0.054122231900691986,
				0.019999999552965164,
				-0.04999999701976776
			]
		}
	],
	"meshes":[
		{
			"name":"Cube.008",
			"primitives":[
				{
					"attributes":{
						"POSITION":0,
						"NORMAL":1,
						"TEXCOORD_0":2
					},
					"indices":3
				}
			]
		},
		{
			"name":"Cube.057",
			"primitives":[
				{
					"attributes":{
						"POSITION":4,
						"NORMAL":5,
						"TEXCOORD_0":6
					},
					"indices":7
				}
			]
		},
		{
			"name":"Cube.058",
			"primitives":[
				{
					"attributes":{
						"POSITION":8,
						"NORMAL":9,
						"TEXCOORD_0":10
					},
					"indices":7
				}
			]
		},
		{
			"name":"Cube.059",
			"primitives":[
				{
					"attributes":{
						"POSITION":11,
						"NORMAL":12,
						"TEXCOORD_0":13
					},
					"indices":7
				}
			]
		},
		{
			"name":"Cube.060",
			"primitives":[
				{
					"attributes":{
						"POSITION":14,
						"NORMAL":15,
						"TEXCOORD_0":16
					},
					"indices":7
				}
			]
		},
		{
			"name":"Cube.061",
			"primitives":[
				{
					"attributes":{
						"POSITION":17,
						"NORMAL":18,
						"TEXCOORD_0":19
					},
					"indices":7
				}
			]
		},
		{
			"name":"Cube.062",
			"primitives":[
				{
					"attributes":{
						"POSITION":20,
						"NORMAL":21,
						"TEXCOORD_0":22
					},
					"indices":7
				}
			]
		},
		{
			"name":"Cube.063",
			"primitives":[
				{
					"attributes":{
						"POSITION":23,
						"NORMAL":24,
						"TEXCOORD_0":25
					},
					"indices":7
				}
			]
		},
		{
			"name":"Cube.064",
			"primitives":[
				{
					"attributes":{
						"POSITION":26,
						"NORMAL":27,
						"TEXCOORD_0":28
					},
					"indices":7
				}
			]
		}
	],
	"accessors":[
		{
			"bufferView":0,
			"componentType":5126,
			"count":169,
			"max":[
				0.07499998807907104,
				0.019999990239739418,
				0.050000011920928955
			],
			"min":[
				-0.08499998599290848,
				-0.009999999776482582,
				-0.050000011920928955
			],
			"type":"VEC3"
		},
		{
			"bufferView":1,
			"componentType":5126,
			"count":169,
			"type":"VEC3"
		},
		{
			"bufferView":2,
			"componentType":5126,
			"count":169,
			"type":"VEC2"
		},
		{
			"bufferView":3,
			"componentType":5123,
			"count":480,
			"type":"SCALAR"
		},
		{
			"bufferView":4,
			"componentType":5126,
			"count":88,
			"max":[
				0,
				0.034999992698431015,
				0.005000017583370209
			],
			"min":[
				-0.10499999672174454,
				-0.020000003278255463,
				-0.005000006407499313
			],
			"type":"VEC3"
		},
		{
			"bufferView":5,
			"componentType":5126,
			"count":88,
			"type":"VEC3"
		},
		{
			"bufferView":6,
			"componentType":5126,
			"count":88,
			"type":"VEC2"
		},
		{
			"bufferView":7,
			"componentType":5123,
			"count":132,
			"type":"SCALAR"
		},
		{
			"bufferView":8,
			"componentType":5126,
			"count":88,
			"max":[
				0,
				0.034999992698431015,
				0.005000017583370209
			],
			"min":[
				-0.10499999672174454,
				-0.020000003278255463,
				-0.005000006407499313
			],
			"type":"VEC3"
		},
		{
			"bufferView":9,
			"componentType":5126,
			"count":88,
			"type":"VEC3"
		},
		{
			"bufferView":10,
			"componentType":5126,
			"count":88,
			"type":"VEC2"
		},
		{
			"bufferView":11,
			"componentType":5126,
			"count":88,
			"max":[
				0,
				0.034999992698431015,
				0.005000017583370209
			],
			"min":[
				-0.10499999672174454,
				-0.020000003278255463,
				-0.005000006407499313
			],
			"type":"VEC3"
		},
		{
			"bufferView":12,
			"componentType":5126,
			"count":88,
			"type":"VEC3"
		},
		{
			"bufferView":13,
			"componentType":5126,
			"count":88,
			"type":"VEC2"
		},
		{
			"bufferView":14,
			"componentType":5126,
			"count":88,
			"max":[
				0,
				0.034999992698431015,
				0.005000017583370209
			],
			"min":[
				-0.10499999672174454,
				-0.020000003278255463,
				-0.005000006407499313
			],
			"type":"VEC3"
		},
		{
			"bufferView":15,
			"componentType":5126,
			"count":88,
			"type":"VEC3"
		},
		{
			"bufferView":16,
			"componentType":5126,
			"count":88,
			"type":"VEC2"
		},
		{
			"bufferView":17,
			"componentType":5126,
			"count":88,
			"max":[
				0,
				0.034999992698431015,
				0.005000017583370209
			],
			"min":[
				-0.10499999672174454,
				-0.020000003278255463,
				-0.005000006407499313
			],
			"type":"VEC3"
		},
		{
			"bufferView":18,
			"componentType":5126,
			"count":88,
			"type":"VEC3"
		},
		{
			"bufferView":19,
			"componentType":5126,
			"count":88,
			"type":"VEC2"
		},
		{
			"bufferView":20,
			"componentType":5126,
			"count":88,
			"max":[
				0,
				0.034999992698431015,
				0.005000017583370209
			],
			"min":[
				-0.10499999672174454,
				-0.020000003278255463,
				-0.005000006407499313
			],
			"type":"VEC3"
		},
		{
			"bufferView":21,
			"componentType":5126,
			"count":88,
			"type":"VEC3"
		},
		{
			"bufferView":22,
			"componentType":5126,
			"count":88,
			"type":"VEC2"
		},
		{
			"bufferView":23,
			"componentType":5126,
			"count":88,
			"max":[
				0,
				0.034999992698431015,
				0.005000017583370209
			],
			"min":[
				-0.10499999672174454,
				-0.020000003278255463,
				-0.005000006407499313
			],
			"type":"VEC3"
		},
		{
			"bufferView":24,
			"componentType":5126,
			"count":88,
			"type":"VEC3"
		},
		{
			"bufferView":25,
			"componentType":5126,
			"count":88,
			"type":"VEC2"
		},
		{
			"bufferView":26,
			"componentType":5126,
			"count":88,
			"max":[
				0,
				0.034999992698431015,
				0.005000017583370209
			],
			"min":[
				-0.10499999672174454,
				-0.020000003278255463,
				-0.005000006407499313
			],
			"type":"VEC3"
		},
		{
			"bufferView":27,
			"componentType":5126,
			"count":88,
			"type":"VEC3"
		},
		{
			"bufferView":28,
			"componentType":5126,
			"count":88,
			"type":"VEC2"
		}
	],
	"bufferViews":[
		{
			"buffer":0,
			"byteLength":2028,
			"byteOffset":0,
			"target":34962
		},
		{
			"buffer":0,
			"byteLength":2028,
			"byteOffset":2028,
			"target":34962
		},
		{
			"buffer":0,
			"byteLength":1352,
			"byteOffset":4056,
			"target":34962
		},
		{
			"buffer":0,
			"byteLength":960,
			"byteOffset":5408,
			"target":34963
		},
		{
			"buffer":0,
			"byteLength":1056,
			"byteOffset":6368,
			"target":34962
		},
		{
			"buffer":0,
			"byteLength":1056,
			"byteOffset":7424,
			"target":34962
		},
		{
			"buffer":0,
			"byteLength":704,
			"byteOffset":8480,
			"target":34962
		},
		{
			"buffer":0,
			"byteLength":264,
			"byteOffset":9184,
			"target":34963
		},
		{
			"buffer":0,
			"byteLength":1056,
			"byteOffset":9448,
			"target":34962
		},
		{
			"buffer":0,
			"byteLength":1056,
			"byteOffset":10504,
			"target":34962
		},
		{
			"buffer":0,
			"byteLength":704,
			"byteOffset":11560,
			"target":34962
		},
		{
			"buffer":0,
			"byteLength":1056,
			"byteOffset":12264,
			"target":34962
		},
		{
			"buffer":0,
			"byteLength":1056,
			"byteOffset":13320,
			"target":34962
		},
		{
			"buffer":0,
			"byteLength":704,
			"byteOffset":14376,
			"target":34962
		},
		{
			"buffer":0,
			"byteLength":1056,
			"byteOffset":15080,
			"target":34962
		},
		{
			"buffer":0,
			"byteLength":1056,
			"byteOffset":16136,
			"target":34962
		},
		{
			"buffer":0,
			"byteLength":704,
			"byteOffset":17192,
			"target":34962
		},
		{
			"buffer":0,
			"byteLength":1056,
			"byteOffset":17896,
			"target":34962
		},
		{
			"buffer":0,
			"byteLength":1056,
			"byteOffset":18952,
			"target":34962
		},
		{
			"buffer":0,
			"byteLength":704,
			"byteOffset":20008,
			"target":34962
		},
		{
			"buffer":0,
			"byteLength":1056,
			"byteOffset":20712,
			"target":34962
		},
		{
			"buffer":0,
			"byteLength":1056,
			"byteOffset":21768,
			"target":34962
		},
		{
			"buffer":0,
			"byteLength":704,
			"byteOffset":22824,
			"target":34962
		},
		{
			"buffer":0,
			"byteLength":1056,
			"byteOffset":23528,
			"target":34962
		},
		{
			"buffer":0,
			"byteLength":1056,
			"byteOffset":24584,
			"target":34962
		},
		{
			"buffer":0,
			"byteLength":704,
			"byteOffset":25640,
			"target":34962
		},
		{
			"buffer":0,
			"byteLength":1056,
			"byteOffset":26344,
			"target":34962
		},
		{
			"buffer":0,
			"byteLength":1056,
			"byteOffset":27400,
			"target":34962
		},
		{
			"buffer":0,
			"byteLength":704,
			"byteOffset":28456,
			"target":34962
		}
	],
	"buffers":[
		{
			"byteLength":29160,
			"uri":"obj_spider.bin"
		}
	]
}
