{
	"asset":{
		"generator":"Khronos glTF Blender I/O v4.2.69",
		"version":"2.0"
	},
	"scene":0,
	"scenes":[
		{
			"name":"Scene",
			"nodes":[
				0,
				1,
				2,
				3,
				4,
				5
			]
		}
	],
	"nodes":[
		{
			"mesh":0,
			"name":"obj_rat_body",
			"rotation":[
				0,
				0,
				-0.1924503743648529,
				0.9813067317008972
			],
			"scale":[
				0.19999998807907104,
				0.19999998807907104,
				0.19999998807907104
			],
			"translation":[
				0.09999999403953552,
				0,
				0
			]
		},
		{
			"mesh":1,
			"name":"obj_rat_leg_a",
			"scale":[
				0.19999998807907104,
				0.19999998807907104,
				0.19999998807907104
			],
			"translation":[
				0.09999999403953552,
				0,
				0
			]
		},
		{
			"mesh":2,
			"name":"obj_rat_leg_b",
			"rotation":[
				0,
				0,
				-1,
				0
			],
			"scale":[
				-0.19999998807907104,
				-0.19999998807907104,
				-0.19999998807907104
			],
			"translation":[
				0.09999999403953552,
				0,
				0
			]
		},
		{
			"mesh":3,
			"name":"obj_rat_hand_a",
			"rotation":[
				0,
				0,
				-0.7071068286895752,
				0.7071068286895752
			],
			"scale":[
				0.19999998807907104,
				0.19999998807907104,
				0.19999998807907104
			],
			"translation":[
				0,
				0.07500000298023224,
				0
			]
		},
		{
			"mesh":4,
			"name":"obj_rat_hand_b",
			"rotation":[
				0,
				0,
				0.7071068286895752,
				0.7071068286895752
			],
			"scale":[
				-0.19999998807907104,
				-0.19999998807907104,
				-0.19999998807907104
			],
			"translation":[
				0,
				0.07500000298023224,
				0
			]
		},
		{
			"mesh":5,
			"name":"obj_rat_tail",
			"scale":[
				0.0332786925137043,
				0.004678001161664724,
				0.003066575387492776
			],
			"translation":[
				0.15000000596046448,
				0.05000000074505806,
				0
			]
		}
	],
	"meshes":[
		{
			"name":"Cube.010",
			"primitives":[
				{
					"attributes":{
						"POSITION":0,
						"NORMAL":1,
						"TEXCOORD_0":2
					},
					"indices":3
				}
			]
		},
		{
			"name":"Cube.052",
			"primitives":[
				{
					"attributes":{
						"POSITION":4,
						"NORMAL":5,
						"TEXCOORD_0":6
					},
					"indices":7
				}
			]
		},
		{
			"name":"Cube.053",
			"primitives":[
				{
					"attributes":{
						"POSITION":8,
						"NORMAL":9,
						"TEXCOORD_0":10
					},
					"indices":7
				}
			]
		},
		{
			"name":"Cube.054",
			"primitives":[
				{
					"attributes":{
						"POSITION":11,
						"NORMAL":12,
						"TEXCOORD_0":13
					},
					"indices":7
				}
			]
		},
		{
			"name":"Cube.055",
			"primitives":[
				{
					"attributes":{
						"POSITION":14,
						"NORMAL":15,
						"TEXCOORD_0":16
					},
					"indices":7
				}
			]
		},
		{
			"name":"Cube.056",
			"primitives":[
				{
					"attributes":{
						"POSITION":17,
						"NORMAL":18,
						"TEXCOORD_0":19
					},
					"indices":7
				}
			]
		}
	],
	"accessors":[
		{
			"bufferView":0,
			"componentType":5126,
			"count":58,
			"max":[
				0.1664268672466278,
				0.4500000476837158,
				0.20000001788139343
			],
			"min":[
				-1.0000001192092896,
				0,
				-0.20000004768371582
			],
			"type":"VEC3"
		},
		{
			"bufferView":1,
			"componentType":5126,
			"count":58,
			"type":"VEC3"
		},
		{
			"bufferView":2,
			"componentType":5126,
			"count":58,
			"type":"VEC2"
		},
		{
			"bufferView":3,
			"componentType":5123,
			"count":96,
			"type":"SCALAR"
		},
		{
			"bufferView":4,
			"componentType":5126,
			"count":24,
			"max":[
				5.960464477539063e-08,
				0.07499998807907104,
				0.2500000596046448
			],
			"min":[
				-0.34999996423721313,
				0,
				0.20000001788139343
			],
			"type":"VEC3"
		},
		{
			"bufferView":5,
			"componentType":5126,
			"count":24,
			"type":"VEC3"
		},
		{
			"bufferView":6,
			"componentType":5126,
			"count":24,
			"type":"VEC2"
		},
		{
			"bufferView":7,
			"componentType":5123,
			"count":36,
			"type":"SCALAR"
		},
		{
			"bufferView":8,
			"componentType":5126,
			"count":24,
			"max":[
				5.960464477539063e-08,
				0.07499998807907104,
				0.2500000596046448
			],
			"min":[
				-0.34999996423721313,
				0,
				0.20000001788139343
			],
			"type":"VEC3"
		},
		{
			"bufferView":9,
			"componentType":5126,
			"count":24,
			"type":"VEC3"
		},
		{
			"bufferView":10,
			"componentType":5126,
			"count":24,
			"type":"VEC2"
		},
		{
			"bufferView":11,
			"componentType":5126,
			"count":24,
			"max":[
				0.3250000774860382,
				0.05123553425073624,
				0.20474907755851746
			],
			"min":[
				-0.024999946355819702,
				-0.02376445382833481,
				0.1547490358352661
			],
			"type":"VEC3"
		},
		{
			"bufferView":12,
			"componentType":5126,
			"count":24,
			"type":"VEC3"
		},
		{
			"bufferView":13,
			"componentType":5126,
			"count":24,
			"type":"VEC2"
		},
		{
			"bufferView":14,
			"componentType":5126,
			"count":24,
			"max":[
				0.3250000774860382,
				0.05123553425073624,
				0.20474907755851746
			],
			"min":[
				-0.024999946355819702,
				-0.02376445382833481,
				0.1547490358352661
			],
			"type":"VEC3"
		},
		{
			"bufferView":15,
			"componentType":5126,
			"count":24,
			"type":"VEC3"
		},
		{
			"bufferView":16,
			"componentType":5126,
			"count":24,
			"type":"VEC2"
		},
		{
			"bufferView":17,
			"componentType":5126,
			"count":24,
			"max":[
				3.9148313999176025,
				-0.2381429672241211,
				1
			],
			"min":[
				-0.21640682220458984,
				-2.238142967224121,
				-1
			],
			"type":"VEC3"
		},
		{
			"bufferView":18,
			"componentType":5126,
			"count":24,
			"type":"VEC3"
		},
		{
			"bufferView":19,
			"componentType":5126,
			"count":24,
			"type":"VEC2"
		}
	],
	"bufferViews":[
		{
			"buffer":0,
			"byteLength":696,
			"byteOffset":0,
			"target":34962
		},
		{
			"buffer":0,
			"byteLength":696,
			"byteOffset":696,
			"target":34962
		},
		{
			"buffer":0,
			"byteLength":464,
			"byteOffset":1392,
			"target":34962
		},
		{
			"buffer":0,
			"byteLength":192,
			"byteOffset":1856,
			"target":34963
		},
		{
			"buffer":0,
			"byteLength":288,
			"byteOffset":2048,
			"target":34962
		},
		{
			"buffer":0,
			"byteLength":288,
			"byteOffset":2336,
			"target":34962
		},
		{
			"buffer":0,
			"byteLength":192,
			"byteOffset":2624,
			"target":34962
		},
		{
			"buffer":0,
			"byteLength":72,
			"byteOffset":2816,
			"target":34963
		},
		{
			"buffer":0,
			"byteLength":288,
			"byteOffset":2888,
			"target":34962
		},
		{
			"buffer":0,
			"byteLength":288,
			"byteOffset":3176,
			"target":34962
		},
		{
			"buffer":0,
			"byteLength":192,
			"byteOffset":3464,
			"target":34962
		},
		{
			"buffer":0,
			"byteLength":288,
			"byteOffset":3656,
			"target":34962
		},
		{
			"buffer":0,
			"byteLength":288,
			"byteOffset":3944,
			"target":34962
		},
		{
			"buffer":0,
			"byteLength":192,
			"byteOffset":4232,
			"target":34962
		},
		{
			"buffer":0,
			"byteLength":288,
			"byteOffset":4424,
			"target":34962
		},
		{
			"buffer":0,
			"byteLength":288,
			"byteOffset":4712,
			"target":34962
		},
		{
			"buffer":0,
			"byteLength":192,
			"byteOffset":5000,
			"target":34962
		},
		{
			"buffer":0,
			"byteLength":288,
			"byteOffset":5192,
			"target":34962
		},
		{
			"buffer":0,
			"byteLength":288,
			"byteOffset":5480,
			"target":34962
		},
		{
			"buffer":0,
			"byteLength":192,
			"byteOffset":5768,
			"target":34962
		}
	],
	"buffers":[
		{
			"byteLength":5960,
			"uri":"obj_rat.bin"
		}
	]
}
