{
	"asset":{
		"generator":"Khronos glTF Blender I/O v4.2.69",
		"version":"2.0"
	},
	"scene":0,
	"scenes":[
		{
			"name":"Scene",
			"nodes":[
				0,
				1,
				2,
				3,
				4
			]
		}
	],
	"nodes":[
		{
			"mesh":0,
			"name":"obj_frog_body",
			"rotation":[
				0,
				0,
				-0.3826834261417389,
				0.9238795638084412
			],
			"scale":[
				0.03559583052992821,
				0.03559583052992821,
				0.03559583052992821
			]
		},
		{
			"mesh":1,
			"name":"obj_frog_hand_a",
			"scale":[
				0.019999980926513672,
				0.019999980926513672,
				0.019999980926513672
			],
			"translation":[
				-0.02499999850988388,
				0.05000000447034836,
				0
			]
		},
		{
			"mesh":2,
			"name":"obj_frog_hand_b",
			"scale":[
				0.019999980926513672,
				0.019999980926513672,
				0.019999980926513672
			],
			"translation":[
				-0.02499999850988388,
				0.05000000447034836,
				0
			]
		},
		{
			"mesh":3,
			"name":"obj_frog_leg_a",
			"scale":[
				0.019999980926513672,
				0.019999980926513672,
				0.019999980926513672
			]
		},
		{
			"mesh":4,
			"name":"obj_frog_leg_b",
			"scale":[
				0.019999980926513672,
				0.019999980926513672,
				0.019999980926513672
			]
		}
	],
	"meshes":[
		{
			"name":"Cube.011",
			"primitives":[
				{
					"attributes":{
						"POSITION":0,
						"NORMAL":1,
						"TEXCOORD_0":2
					},
					"indices":3
				}
			]
		},
		{
			"name":"Cube.048",
			"primitives":[
				{
					"attributes":{
						"POSITION":4,
						"NORMAL":5,
						"TEXCOORD_0":6
					},
					"indices":7
				}
			]
		},
		{
			"name":"Cube.049",
			"primitives":[
				{
					"attributes":{
						"POSITION":8,
						"NORMAL":9,
						"TEXCOORD_0":10
					},
					"indices":7
				}
			]
		},
		{
			"name":"Cube.046",
			"primitives":[
				{
					"attributes":{
						"POSITION":11,
						"NORMAL":12,
						"TEXCOORD_0":13
					},
					"indices":7
				}
			]
		},
		{
			"name":"Cube.047",
			"primitives":[
				{
					"attributes":{
						"POSITION":14,
						"NORMAL":15,
						"TEXCOORD_0":16
					},
					"indices":7
				}
			]
		}
	],
	"accessors":[
		{
			"bufferView":0,
			"componentType":5126,
			"count":40,
			"max":[
				0,
				1.4046589136123657,
				1.1237270832061768
			],
			"min":[
				-3.090249538421631,
				1.1920928955078125e-07,
				-1.1237270832061768
			],
			"type":"VEC3"
		},
		{
			"bufferView":1,
			"componentType":5126,
			"count":40,
			"type":"VEC3"
		},
		{
			"bufferView":2,
			"componentType":5126,
			"count":40,
			"type":"VEC2"
		},
		{
			"bufferView":3,
			"componentType":5123,
			"count":60,
			"type":"SCALAR"
		},
		{
			"bufferView":4,
			"componentType":5126,
			"count":24,
			"max":[
				-0.5707451105117798,
				0.49936747550964355,
				2.2500100135803223
			],
			"min":[
				-2.6716582775115967,
				-0.25063323974609375,
				1.4999938011169434
			],
			"type":"VEC3"
		},
		{
			"bufferView":5,
			"componentType":5126,
			"count":24,
			"type":"VEC3"
		},
		{
			"bufferView":6,
			"componentType":5126,
			"count":24,
			"type":"VEC2"
		},
		{
			"bufferView":7,
			"componentType":5123,
			"count":36,
			"type":"SCALAR"
		},
		{
			"bufferView":8,
			"componentType":5126,
			"count":24,
			"max":[
				-0.5707451105117798,
				0.49936747550964355,
				-1.4999938011169434
			],
			"min":[
				-2.6716582775115967,
				-0.25063323974609375,
				-2.2500100135803223
			],
			"type":"VEC3"
		},
		{
			"bufferView":9,
			"componentType":5126,
			"count":24,
			"type":"VEC3"
		},
		{
			"bufferView":10,
			"componentType":5126,
			"count":24,
			"type":"VEC2"
		},
		{
			"bufferView":11,
			"componentType":5126,
			"count":24,
			"max":[
				-9.5367431640625e-07,
				0.7500007152557373,
				2.2500100135803223
			],
			"min":[
				-4.000002861022949,
				0,
				0.8336865901947021
			],
			"type":"VEC3"
		},
		{
			"bufferView":12,
			"componentType":5126,
			"count":24,
			"type":"VEC3"
		},
		{
			"bufferView":13,
			"componentType":5126,
			"count":24,
			"type":"VEC2"
		},
		{
			"bufferView":14,
			"componentType":5126,
			"count":24,
			"max":[
				-9.5367431640625e-07,
				0.7500006556510925,
				-0.7499930262565613
			],
			"min":[
				-4.000002861022949,
				0,
				-2.166316509246826
			],
			"type":"VEC3"
		},
		{
			"bufferView":15,
			"componentType":5126,
			"count":24,
			"type":"VEC3"
		},
		{
			"bufferView":16,
			"componentType":5126,
			"count":24,
			"type":"VEC2"
		}
	],
	"bufferViews":[
		{
			"buffer":0,
			"byteLength":480,
			"byteOffset":0,
			"target":34962
		},
		{
			"buffer":0,
			"byteLength":480,
			"byteOffset":480,
			"target":34962
		},
		{
			"buffer":0,
			"byteLength":320,
			"byteOffset":960,
			"target":34962
		},
		{
			"buffer":0,
			"byteLength":120,
			"byteOffset":1280,
			"target":34963
		},
		{
			"buffer":0,
			"byteLength":288,
			"byteOffset":1400,
			"target":34962
		},
		{
			"buffer":0,
			"byteLength":288,
			"byteOffset":1688,
			"target":34962
		},
		{
			"buffer":0,
			"byteLength":192,
			"byteOffset":1976,
			"target":34962
		},
		{
			"buffer":0,
			"byteLength":72,
			"byteOffset":2168,
			"target":34963
		},
		{
			"buffer":0,
			"byteLength":288,
			"byteOffset":2240,
			"target":34962
		},
		{
			"buffer":0,
			"byteLength":288,
			"byteOffset":2528,
			"target":34962
		},
		{
			"buffer":0,
			"byteLength":192,
			"byteOffset":2816,
			"target":34962
		},
		{
			"buffer":0,
			"byteLength":288,
			"byteOffset":3008,
			"target":34962
		},
		{
			"buffer":0,
			"byteLength":288,
			"byteOffset":3296,
			"target":34962
		},
		{
			"buffer":0,
			"byteLength":192,
			"byteOffset":3584,
			"target":34962
		},
		{
			"buffer":0,
			"byteLength":288,
			"byteOffset":3776,
			"target":34962
		},
		{
			"buffer":0,
			"byteLength":288,
			"byteOffset":4064,
			"target":34962
		},
		{
			"buffer":0,
			"byteLength":192,
			"byteOffset":4352,
			"target":34962
		}
	],
	"buffers":[
		{
			"byteLength":4544,
			"uri":"obj_frog.bin"
		}
	]
}
