{
	"asset":{
		"generator":"Khronos glTF Blender I/O v4.2.69",
		"version":"2.0"
	},
	"scene":0,
	"scenes":[
		{
			"name":"Scene",
			"nodes":[
				0
			]
		}
	],
	"nodes":[
		{
			"mesh":0,
			"name":"obj_slug_body",
			"scale":[
				0.30000001192092896,
				0.30000001192092896,
				0.30000001192092896
			]
		}
	],
	"meshes":[
		{
			"name":"Cube.007",
			"primitives":[
				{
					"attributes":{
						"POSITION":0,
						"NORMAL":1,
						"TEXCOORD_0":2
					},
					"indices":3
				}
			]
		}
	],
	"accessors":[
		{
			"bufferView":0,
			"componentType":5126,
			"count":24,
			"max":[
				0.20000004768371582,
				0.06666672229766846,
				0.050000011920928955
			],
			"min":[
				-0.20000004768371582,
				-1.4901161193847656e-08,
				-0.05000007152557373
			],
			"type":"VEC3"
		},
		{
			"bufferView":1,
			"componentType":5126,
			"count":24,
			"type":"VEC3"
		},
		{
			"bufferView":2,
			"componentType":5126,
			"count":24,
			"type":"VEC2"
		},
		{
			"bufferView":3,
			"componentType":5123,
			"count":36,
			"type":"SCALAR"
		}
	],
	"bufferViews":[
		{
			"buffer":0,
			"byteLength":288,
			"byteOffset":0,
			"target":34962
		},
		{
			"buffer":0,
			"byteLength":288,
			"byteOffset":288,
			"target":34962
		},
		{
			"buffer":0,
			"byteLength":192,
			"byteOffset":576,
			"target":34962
		},
		{
			"buffer":0,
			"byteLength":72,
			"byteOffset":768,
			"target":34963
		}
	],
	"buffers":[
		{
			"byteLength":840,
			"uri":"obj_slug.bin"
		}
	]
}
